Coordinates
version=1
nRows=13
nColumns=38
inDegrees=no

Units are S.I. units (second, meters, Newtons, ...)
If the header above contains a line with 'inDegrees', this indicates whether rotational values are in degrees (yes) or radians (no).

endheader
time	pelvis_tilt	pelvis_list	pelvis_rotation	pelvis_tx	pelvis_ty	pelvis_tz	hip_flexion_r	hip_adduction_r	hip_rotation_r	knee_angle_r	ankle_angle_r	subtalar_angle_r	mtp_angle_r	hip_flexion_l	hip_adduction_l	hip_rotation_l	knee_angle_l	ankle_angle_l	subtalar_angle_l	mtp_angle_l	lumbar_extension	lumbar_bending	lumbar_rotation	arm_flex_r	arm_add_r	arm_rot_r	elbow_flex_r	pro_sup_r	wrist_flex_r	wrist_dev_r	arm_flex_l	arm_add_l	arm_rot_l	elbow_flex_l	pro_sup_l	wrist_flex_l	wrist_dev_l
15	3.01848	1.39056	-1.60843	0.718533	-1.13251	0.936816	-0.317216	0.0759742	-0.071725	0.170483	-0.180391	0	0	0.156677	-0.0883739	-0.072464	0.399522	-0.245778	0	0	-0.466027	0.0278119	0.353419	0.0438127	-0.461025	-0.351924	2.20492	1.52906	0	0	0.267428	-0.367201	0.0567863	1.81698	1.5708	0	0
15.01	-3.10658	1.40355	-1.7398	0.717571	-1.12803	0.933745	-0.306555	0.0487982	-0.126195	0.15906	-0.171277	0	0	0.174153	-0.0559606	-0.0512798	0.402515	-0.242819	0	0	-0.439834	0.00906231	0.321607	0.0360695	-0.447445	-0.349699	2.20147	1.52961	0	0	0.268649	-0.379755	0.0620381	1.81537	1.5708	0	0
15.02	-3.1359	1.39896	-1.71158	0.717523	-1.12704	0.934674	-0.301996	0.0653818	-0.16034	0.220084	-0.106923	0	0	0.165542	-0.061572	-0.0557695	0.399611	-0.243804	0	0	-0.447054	0.0128459	0.322265	0.0441196	-0.450191	-0.3458	2.19534	1.53003	0	0	0.272772	-0.379277	0.0633866	1.81204	1.5708	0	0
15.03	2.97559	1.3883	-1.56274	0.717113	-1.12971	0.938164	-0.325684	0.0802255	-0.0575207	0.147848	-0.222973	0	0	0.149449	-0.0958551	-0.0721068	0.394963	-0.24963	0	0	-0.478307	0.0400501	0.357263	0.0606587	-0.470076	-0.349773	2.19911	1.52382	0	0	0.284331	-0.364398	0.0686013	1.80417	1.5708	0	0
15.04	2.99035	1.38936	-1.57878	0.717239	-1.12905	0.93781	-0.307746	0.0908801	-0.0750694	0.15565	-0.234033	0	0	0.149569	-0.0936563	-0.0750859	0.394901	-0.250304	0	0	-0.472675	0.033046	0.350496	0.071142	-0.470357	-0.339387	2.1815	1.5237	0	0	0.288717	-0.365374	0.0670898	1.79983	1.5708	0	0
15.05	-3.10102	1.40343	-1.7478	0.71691	-1.12493	0.933742	-0.301616	0.0483449	-0.132801	0.172338	-0.177808	0	0	0.1691	-0.0561418	-0.0584541	0.399963	-0.245837	0	0	-0.4448	0.00532862	0.318058	0.0678072	-0.455703	-0.332955	2.17562	1.52443	0	0	0.291564	-0.37953	0.0693859	1.79937	1.5708	0	0
15.06	-3.09606	1.40503	-1.75293	0.716753	-1.12404	0.933543	-0.300654	0.0459932	-0.131443	0.17459	-0.169266	0	0	0.170091	-0.0557779	-0.0590582	0.40039	-0.245812	0	0	-0.44418	0.00416649	0.316456	0.0760547	-0.457243	-0.327588	2.16835	1.52442	0	0	0.297349	-0.379102	0.0701096	1.79401	1.5708	0	0
15.07	-3.09068	1.40813	-1.75872	0.716875	-1.12314	0.933203	-0.36958	0.0667522	-0.0778556	0.0576035	-0.177686	0	0	0.173065	-0.0561603	-0.0599175	0.401689	-0.246254	0	0	-0.441657	0.00294688	0.314834	0.0847789	-0.457378	-0.320969	2.16115	1.52479	0	0	0.30344	-0.379539	0.0704355	1.78772	1.5708	0	0
15.08	-3.0833	1.40867	-1.76637	0.7166	-1.12226	0.93308	-0.344832	0.0564828	-0.0961428	0.105273	-0.173424	0	0	0.172705	-0.0548088	-0.0601492	0.401064	-0.247907	0	0	-0.442211	0.00124301	0.313507	0.0935974	-0.458699	-0.316239	2.1547	1.52482	0	0	0.310855	-0.37846	0.0711191	1.7813	1.5708	0	0
15.09	3.01772	1.41642	-1.6062	0.716038	-1.12341	0.935753	-0.302095	0.0698541	-0.0563568	0.168327	-0.174739	0	0	0.17418	-0.0881158	-0.0729554	0.396753	-0.254854	0	0	-0.445204	0.0306379	0.345843	0.102717	-0.474678	-0.314479	2.14767	1.52475	0	0	0.32781	-0.378342	0.0542518	1.77842	1.5708	0	0
15.1	3.0044	1.41667	-1.5912	0.7154	-1.12214	0.936034	-0.291566	0.0685595	-0.0591007	0.192228	-0.188825	0	0	0.17322	-0.0896135	-0.0712583	0.396085	-0.257184	0	0	-0.445846	0.0329072	0.34427	0.114226	-0.464664	-0.315037	2.14159	1.52672	0	0	0.333105	-0.375451	0.0541528	1.77256	1.57003	0	0
15.11	-3.06845	1.42494	-1.78101	0.715347	-1.11825	0.93247	-0.284152	0.0346472	-0.110255	0.189626	-0.189716	0	0	0.186123	-0.0544551	-0.0570732	0.399531	-0.254814	0	0	-0.424524	0.00509351	0.31582	0.107865	-0.462306	-0.307056	2.13638	1.52749	0	0	0.340337	-0.387713	0.0585714	1.76846	1.56702	0	0
15.12	-3.05682	1.42953	-1.79352	0.71546	-1.11702	0.931904	-0.28129	0.0328095	-0.111937	0.196438	-0.18558	0	0	0.190521	-0.0543771	-0.0572561	0.400519	-0.255544	0	0	-0.41979	0.00338049	0.315188	0.114962	-0.462212	-0.301704	2.12975	1.52743	0	0	0.346227	-0.387794	0.0597994	1.76218	1.56626	0	0
